<?xml version="1.0" encoding="UTF-8" standalone="no"?>
<!DOCTYPE svg PUBLIC "-//W3C//DTD SVG 1.1//EN" "http://www.w3.org/Graphics/SVG/1.1/DTD/svg11.dtd">
<svg width="100%" height="100%" viewBox="0 0 2000 741" version="1.1" xmlns="http://www.w3.org/2000/svg" xmlns:xlink="http://www.w3.org/1999/xlink" xml:space="preserve" xmlns:serif="http://www.serif.com/" style="fill-rule:evenodd;clip-rule:evenodd;stroke-linejoin:round;stroke-miterlimit:2;">
    <g transform="matrix(1.953125,0,0,1.953125,-0.008741,132.149526)">
        <path d="M197.441,111.227C197.203,111.318 196.816,110.527 196.584,111.553C195.917,114.506 196.203,114.533 188.914,148.599C181.535,183.082 177.957,182.364 174.599,217.511C174.064,223.108 172.843,247.099 165.498,249.495C163.182,250.25 163.105,249.71 137.349,237.877C131.174,235.04 137.255,214.808 138.227,212.405C147.776,188.796 173.687,113.933 177.102,94.424C177.313,93.216 179.298,75.032 184.424,74.125C206.637,70.196 208.746,72.338 210.193,73.806C223.666,87.481 217.506,117.552 250.731,173.374C257.118,184.104 257.101,162.105 278.404,134.43C279.281,133.29 300.691,96.604 304.715,88.608C315.179,67.813 313.857,55.186 329.409,65.634C341.611,73.831 336.745,80.995 336.819,84.5C337.427,113.635 341.852,113.026 346.08,151.537C350.847,194.957 349.485,195.16 360.105,237.587C361.563,243.408 359.861,243.684 343.119,257.011C338.302,260.845 336.45,259.401 331.511,249.494C325.887,238.215 323.875,222.551 321.718,210.489C322.124,202.712 319.255,140.836 319.399,120.523C319.454,112.739 316.558,122.458 295.145,160.309C269.626,205.419 259.409,228.11 236.869,206.164C234.74,204.092 210.276,171.237 198.626,111.394C198.231,111.339 197.836,111.283 197.441,111.227Z" style="fill:white;fill-opacity:0.96;"/>
        <path d="M684.843,217.715C686.42,214.303 693.25,205.16 696.845,190.586C696.989,190.004 708.293,160.198 700.592,165.665C643.996,205.843 636.216,195.291 628.915,182.336C620.07,166.64 642.595,111.342 647.684,106.721C649.846,104.759 660.673,105.821 661.627,106.203C670.633,109.81 664.253,119.607 663.619,120.58C647.157,145.857 647.933,165.249 650.937,170.147C653.021,173.545 671.984,165.213 680.222,160.037C712.541,139.731 708.646,131.688 712.56,105.514C713.643,98.272 732.699,97.477 733.477,97.67C738.039,98.798 732.961,118.804 730.345,135.478C728.81,145.261 714.872,234.082 681.363,249.16C675.152,251.955 666.356,243.253 665.969,241.362C664.578,234.575 677.833,233.773 684.843,217.715Z" style="fill:white;fill-opacity:0.96;"/>
        <path d="M472.011,210.088C461.76,218.567 460.793,219.636 444.422,224.175C417.769,231.567 396.718,220.687 399.564,201.508C400.159,197.502 401.959,195.008 398.837,191.31C392.035,183.252 407.131,173.735 411.041,167.222C444.923,110.788 505.35,113.479 489.165,153.362C478.274,180.2 426.733,188.001 425.433,191.468C417.03,213.863 451.06,207.073 473.513,187.517C477.736,183.838 482.649,181.92 483.516,181.581C484.925,181.031 486,182.848 485.337,184.448C479.772,197.878 480.296,198.128 472.011,210.088L440.005,162.165C439.857,162.39 437.155,166.508 440.5,165.497C470.062,156.562 466.962,145.628 462.519,145.942C453.98,146.547 441.486,160.51 440.005,162.165L472.011,210.088Z" style="fill:white;fill-opacity:0.96;"/>
        <path d="M572.066,121.019C593.948,103.472 603.232,105.183 614.499,105.538C627.543,105.949 623.858,118.221 623.476,119.492C620.053,130.89 595.825,116.038 568.62,151.601C545.062,182.396 544.665,209.388 537.357,213.213C517.269,223.728 513.675,210.005 517.029,185.441C523.491,138.106 524.397,138.342 529.516,118.506C531.431,111.082 541.05,107.02 545.299,108.969C548.689,110.524 554.786,113.322 542.134,155.475C540.54,160.786 544.126,157.486 544.224,157.288C553.952,137.702 569.375,123.497 572.066,121.019Z" style="fill:white;fill-opacity:0.96;"/>
        <path d="M793,11.111C793.482,10.726 793.221,10.393 810.672,2.904C818.711,-0.546 818.4,7.852 808.694,38.571C781.533,124.537 791.729,154.537 790.754,170.529C790.487,174.91 769.588,182.164 768.431,181.614C753.005,174.281 784.684,22.906 793,11.111Z" style="fill:white;fill-opacity:0.96;"/>
        <path d="M828.968,227.99C829.406,227.531 834.463,222.224 832.924,221.124C831.643,220.208 826.328,221.827 823.752,223.843C802.524,240.458 832.986,249.503 823.232,261.265C809.748,277.524 786.306,260.544 801.896,250.997C803.232,250.179 814.59,248.639 804.973,256.917C802.833,258.76 805.428,263.29 809.518,262.675C826.479,260.124 814.036,247.121 813.091,245.801C799.481,226.788 827.682,214.961 829.536,214.751C852.54,212.14 829.609,239.77 821.403,237.889C813.879,236.163 825.346,230.847 828.968,227.99Z" style="fill:white;fill-opacity:0.92;"/>
        <path d="M856.997,251.822C862.672,245.529 861.192,252.97 861.06,253.289C855.935,265.661 843.236,267.806 846.301,257.464C852.053,238.054 840.466,265.194 838.543,265.633C832.342,267.05 839.532,250.495 840.055,249.291C846.769,233.829 856.216,211.019 859.711,218.317C861.245,221.519 850.638,238.87 849.62,240.536C847.483,244.03 853.973,240.405 854.47,240.341C865.495,238.907 850.754,253.692 851.903,256.331C852.892,258.606 856.715,252.287 856.997,251.822Z" style="fill:white;fill-opacity:0.92;"/>
        <path d="M934.637,248.512C936.303,251.805 940.681,258.046 934.324,262.217C933.194,262.958 929.617,263.94 926.416,262.694C922.693,261.244 921.043,257.796 921.863,253.55C923.417,248.143 927.107,250.1 927.889,244.541C929.592,232.441 952.973,230.266 945.109,243.21C944.621,244.013 943.033,246.627 934.637,248.512ZM930.121,251.927C930.038,251.928 929.957,251.931 929.878,251.934C925.207,252.169 928.04,257.397 929.625,258.123C930.077,258.33 934.591,258.632 930.121,251.927ZM933.548,244.477C933.405,245.641 934.781,245.09 935.693,244.649C936.29,244.36 944.996,239.447 938.479,240.155C934.21,240.618 933.637,243.96 933.548,244.477Z" style="fill:white;fill-opacity:0.92;"/>
        <g transform="matrix(0.512,0,0,0.512,0,-390.144)">
            <path d="M1727.044,1256.105C1723.668,1262.654 1718.759,1270.722 1713.972,1274.457C1709.648,1277.831 1704.249,1281.09 1698.324,1278.514C1693.84,1276.565 1692.685,1266.105 1694.783,1257.715C1697.101,1248.442 1702.639,1242.067 1702.639,1242.067C1702.639,1242.067 1713.908,1225.286 1726.078,1225.35C1738.249,1225.415 1731.927,1246.633 1727.044,1256.105ZM1721.625,1239.271C1719.478,1238.051 1713.774,1245.139 1710.173,1249.471C1707.768,1253.38 1704.816,1262.636 1706.292,1265.201C1707.028,1266.481 1708.836,1266.238 1712.674,1262.131C1713.859,1260.464 1712.6,1254.195 1717.375,1247.409C1719.14,1244.721 1722.647,1239.773 1721.625,1239.271Z" style="fill:white;"/>
        </g>
        <path d="M911.293,244.406C910.114,248.32 907.629,251.206 905.114,252.709C901.78,254.7 898.503,254.77 899.24,256.586C899.72,257.771 903.842,257.437 904.828,256.84C907.621,255.147 909.59,253.253 910.748,250.724C911.861,248.292 913.622,247.984 914.619,248.231C916.775,248.763 916.078,251.662 914.212,254.125C909.714,260.06 897.152,267.67 893.602,259.454C887.874,246.194 915.076,226.491 911.293,244.406ZM905.008,245.173C904.686,244.831 903.495,245.444 902.708,246.194C902.469,246.422 901.948,247.053 901.71,247.491C901.33,248.191 901.298,248.736 901.421,248.864C901.621,249.071 902.68,248.808 903.911,247.439C905.166,246.043 905.206,245.383 905.008,245.173Z" style="fill:white;fill-opacity:0.91;"/>
    </g>
</svg>
